<mxfile host="Electron" modified="2023-10-29T21:18:56.113Z" agent="Mozilla/5.0 (X11; Linux x86_64) AppleWebKit/537.36 (KHTML, like Gecko) draw.io/22.0.3 Chrome/114.0.5735.289 Electron/25.8.4 Safari/537.36" etag="AlaGxspssbrBlGlbQFHG" version="22.0.3" type="device" pages="3">
  <diagram name="v1" id="GeoDJKG6NgOcJvkiCHNK">
    <mxGraphModel dx="1434" dy="839" grid="1" gridSize="10" guides="1" tooltips="1" connect="1" arrows="1" fold="1" page="1" pageScale="1" pageWidth="583" pageHeight="827" math="0" shadow="0">
      <root>
        <mxCell id="0" />
        <mxCell id="1" parent="0" />
        <mxCell id="iTmUbNezKQguydYjmuNl-1" value="UrlaubsantrÃ¤ge" style="shape=umlFrame;whiteSpace=wrap;html=1;pointerEvents=0;recursiveResize=0;container=1;collapsible=0;width=160;fontStyle=1" parent="1" vertex="1">
          <mxGeometry x="40" y="40" width="890" height="970" as="geometry" />
        </mxCell>
        <mxCell id="iTmUbNezKQguydYjmuNl-13" value="Personen" style="shape=table;html=1;whiteSpace=wrap;startSize=20;container=1;collapsible=0;childLayout=tableLayout;fillColor=none;swimlaneFillColor=none;strokeColor=none;flipH=1;flipV=0;" parent="iTmUbNezKQguydYjmuNl-1" vertex="1">
          <mxGeometry x="10" y="30" width="850" height="940" as="geometry" />
        </mxCell>
        <mxCell id="iTmUbNezKQguydYjmuNl-14" value="" style="shape=partialRectangle;html=1;whiteSpace=wrap;collapsible=0;dropTarget=0;pointerEvents=0;fillColor=none;top=0;left=0;bottom=0;right=0;points=[[0,0.5],[1,0.5]];portConstraint=eastwest;strokeColor=none;" parent="iTmUbNezKQguydYjmuNl-13" vertex="1">
          <mxGeometry y="20" width="850" height="51" as="geometry" />
        </mxCell>
        <mxCell id="iTmUbNezKQguydYjmuNl-16" value="Stellvertretung" style="shape=partialRectangle;html=1;whiteSpace=wrap;connectable=0;fillColor=none;top=1;left=1;bottom=1;right=1;overflow=hidden;" parent="iTmUbNezKQguydYjmuNl-14" vertex="1">
          <mxGeometry width="186" height="51" as="geometry">
            <mxRectangle width="186" height="51" as="alternateBounds" />
          </mxGeometry>
        </mxCell>
        <mxCell id="iTmUbNezKQguydYjmuNl-26" value="Abteilungsleitung" style="shape=partialRectangle;html=1;whiteSpace=wrap;connectable=0;fillColor=none;top=1;left=1;bottom=1;right=1;overflow=hidden;" parent="iTmUbNezKQguydYjmuNl-14" vertex="1">
          <mxGeometry x="186" width="381" height="51" as="geometry">
            <mxRectangle width="381" height="51" as="alternateBounds" />
          </mxGeometry>
        </mxCell>
        <mxCell id="iTmUbNezKQguydYjmuNl-28" value="Antragsstellende" style="shape=partialRectangle;html=1;whiteSpace=wrap;connectable=0;fillColor=none;top=1;left=1;bottom=1;right=1;overflow=hidden;" parent="iTmUbNezKQguydYjmuNl-14" vertex="1">
          <mxGeometry x="567" width="283" height="51" as="geometry">
            <mxRectangle width="283" height="51" as="alternateBounds" />
          </mxGeometry>
        </mxCell>
        <mxCell id="iTmUbNezKQguydYjmuNl-18" value="" style="shape=partialRectangle;html=1;whiteSpace=wrap;collapsible=0;dropTarget=0;pointerEvents=0;fillColor=none;top=1;left=1;bottom=1;right=1;points=[[0,0.5],[1,0.5]];portConstraint=eastwest;" parent="iTmUbNezKQguydYjmuNl-13" vertex="1">
          <mxGeometry y="71" width="850" height="869" as="geometry" />
        </mxCell>
        <mxCell id="iTmUbNezKQguydYjmuNl-20" value="" style="shape=partialRectangle;html=1;whiteSpace=wrap;connectable=0;fillColor=none;top=1;left=1;bottom=1;right=1;overflow=hidden;" parent="iTmUbNezKQguydYjmuNl-18" vertex="1">
          <mxGeometry width="186" height="869" as="geometry">
            <mxRectangle width="186" height="869" as="alternateBounds" />
          </mxGeometry>
        </mxCell>
        <mxCell id="iTmUbNezKQguydYjmuNl-27" style="shape=partialRectangle;html=1;whiteSpace=wrap;connectable=0;fillColor=none;top=1;left=1;bottom=1;right=1;overflow=hidden;" parent="iTmUbNezKQguydYjmuNl-18" vertex="1">
          <mxGeometry x="186" width="381" height="869" as="geometry">
            <mxRectangle width="381" height="869" as="alternateBounds" />
          </mxGeometry>
        </mxCell>
        <mxCell id="iTmUbNezKQguydYjmuNl-29" style="shape=partialRectangle;html=1;whiteSpace=wrap;connectable=0;fillColor=none;top=1;left=1;bottom=1;right=1;overflow=hidden;" parent="iTmUbNezKQguydYjmuNl-18" vertex="1">
          <mxGeometry x="567" width="283" height="869" as="geometry">
            <mxRectangle width="283" height="869" as="alternateBounds" />
          </mxGeometry>
        </mxCell>
        <mxCell id="T1ciDuG5MArBPZRJhuPc-66" value="" style="html=1;align=center;verticalAlign=top;rounded=1;absoluteArcSize=1;arcSize=20;dashed=1;whiteSpace=wrap;fillColor=#f5f5f5;fontColor=#333333;strokeColor=#666666;" parent="iTmUbNezKQguydYjmuNl-1" vertex="1">
          <mxGeometry x="20" y="280" width="480" height="320" as="geometry" />
        </mxCell>
        <mxCell id="T1ciDuG5MArBPZRJhuPc-14" style="edgeStyle=orthogonalEdgeStyle;rounded=0;orthogonalLoop=1;jettySize=auto;html=1;" parent="iTmUbNezKQguydYjmuNl-1" source="T1ciDuG5MArBPZRJhuPc-1" target="T1ciDuG5MArBPZRJhuPc-9" edge="1">
          <mxGeometry relative="1" as="geometry" />
        </mxCell>
        <mxCell id="T1ciDuG5MArBPZRJhuPc-1" value="Urlaub beantragen" style="html=1;align=center;verticalAlign=top;rounded=1;absoluteArcSize=1;arcSize=10;dashed=0;whiteSpace=wrap;fillColor=#fff2cc;strokeColor=#d6b656;" parent="iTmUbNezKQguydYjmuNl-1" vertex="1">
          <mxGeometry x="602.5" y="140" width="140" height="30" as="geometry" />
        </mxCell>
        <mxCell id="T1ciDuG5MArBPZRJhuPc-9" value="Urlaubsantrag&lt;br&gt;&lt;br&gt;[neu]" style="html=1;align=center;verticalAlign=middle;rounded=0;absoluteArcSize=1;arcSize=10;dashed=0;whiteSpace=wrap;fillColor=#d5e8d4;strokeColor=#82b366;" parent="iTmUbNezKQguydYjmuNl-1" vertex="1">
          <mxGeometry x="440" y="125" width="140" height="60" as="geometry" />
        </mxCell>
        <mxCell id="T1ciDuG5MArBPZRJhuPc-10" value="{bennent Zeitraum und&lt;br&gt;&amp;nbsp;Stellvertretung}" style="text;verticalAlign=middle;align=center;html=1;fillColor=default;" parent="T1ciDuG5MArBPZRJhuPc-9" vertex="1">
          <mxGeometry y="60" width="140" height="30" as="geometry" />
        </mxCell>
        <mxCell id="T1ciDuG5MArBPZRJhuPc-18" style="edgeStyle=orthogonalEdgeStyle;rounded=0;orthogonalLoop=1;jettySize=auto;html=1;" parent="iTmUbNezKQguydYjmuNl-1" source="T1ciDuG5MArBPZRJhuPc-11" target="T1ciDuG5MArBPZRJhuPc-17" edge="1">
          <mxGeometry relative="1" as="geometry" />
        </mxCell>
        <mxCell id="T1ciDuG5MArBPZRJhuPc-20" value="[nein]" style="edgeLabel;html=1;align=center;verticalAlign=middle;resizable=0;points=[];" parent="T1ciDuG5MArBPZRJhuPc-18" vertex="1" connectable="0">
          <mxGeometry x="-0.7913" relative="1" as="geometry">
            <mxPoint x="-15" as="offset" />
          </mxGeometry>
        </mxCell>
        <mxCell id="T1ciDuG5MArBPZRJhuPc-11" value="" style="rhombus;fillColor=#f8cecc;strokeColor=#b85450;" parent="iTmUbNezKQguydYjmuNl-1" vertex="1">
          <mxGeometry x="350" y="140" width="30" height="30" as="geometry" />
        </mxCell>
        <mxCell id="T1ciDuG5MArBPZRJhuPc-12" value="Urlaubskontingent ausreichend?" style="text;html=1;strokeColor=none;fillColor=none;align=center;verticalAlign=middle;whiteSpace=wrap;rounded=0;" parent="iTmUbNezKQguydYjmuNl-1" vertex="1">
          <mxGeometry x="335" y="110" width="60" height="30" as="geometry" />
        </mxCell>
        <mxCell id="T1ciDuG5MArBPZRJhuPc-16" value="" style="ellipse;html=1;shape=endState;fillColor=strokeColor;" parent="iTmUbNezKQguydYjmuNl-1" vertex="1">
          <mxGeometry x="250" y="240" width="30" height="30" as="geometry" />
        </mxCell>
        <mxCell id="T1ciDuG5MArBPZRJhuPc-19" style="edgeStyle=orthogonalEdgeStyle;rounded=0;orthogonalLoop=1;jettySize=auto;html=1;" parent="iTmUbNezKQguydYjmuNl-1" source="T1ciDuG5MArBPZRJhuPc-17" target="T1ciDuG5MArBPZRJhuPc-16" edge="1">
          <mxGeometry relative="1" as="geometry" />
        </mxCell>
        <mxCell id="T1ciDuG5MArBPZRJhuPc-17" value="Antrag ablehnen" style="html=1;align=center;verticalAlign=top;rounded=1;absoluteArcSize=1;arcSize=10;dashed=0;whiteSpace=wrap;fillColor=#fff2cc;strokeColor=#d6b656;" parent="iTmUbNezKQguydYjmuNl-1" vertex="1">
          <mxGeometry x="195" y="185" width="140" height="30" as="geometry" />
        </mxCell>
        <mxCell id="T1ciDuG5MArBPZRJhuPc-21" style="edgeStyle=orthogonalEdgeStyle;rounded=0;orthogonalLoop=1;jettySize=auto;html=1;entryX=1;entryY=0.5;entryDx=0;entryDy=0;exitX=0;exitY=0.5;exitDx=0;exitDy=0;" parent="iTmUbNezKQguydYjmuNl-1" source="T1ciDuG5MArBPZRJhuPc-9" target="T1ciDuG5MArBPZRJhuPc-11" edge="1">
          <mxGeometry relative="1" as="geometry" />
        </mxCell>
        <mxCell id="T1ciDuG5MArBPZRJhuPc-33" style="edgeStyle=orthogonalEdgeStyle;rounded=0;orthogonalLoop=1;jettySize=auto;html=1;entryX=1;entryY=0.5;entryDx=0;entryDy=0;exitX=0.999;exitY=0.809;exitDx=0;exitDy=0;exitPerimeter=0;" parent="iTmUbNezKQguydYjmuNl-1" source="T1ciDuG5MArBPZRJhuPc-22" target="T1ciDuG5MArBPZRJhuPc-26" edge="1">
          <mxGeometry relative="1" as="geometry">
            <mxPoint x="345" y="260" as="sourcePoint" />
          </mxGeometry>
        </mxCell>
        <mxCell id="T1ciDuG5MArBPZRJhuPc-43" style="edgeStyle=orthogonalEdgeStyle;rounded=0;orthogonalLoop=1;jettySize=auto;html=1;entryX=0.5;entryY=0;entryDx=0;entryDy=0;" parent="iTmUbNezKQguydYjmuNl-1" source="T1ciDuG5MArBPZRJhuPc-22" target="T1ciDuG5MArBPZRJhuPc-42" edge="1">
          <mxGeometry relative="1" as="geometry" />
        </mxCell>
        <mxCell id="T1ciDuG5MArBPZRJhuPc-22" value="" style="html=1;points=[];perimeter=orthogonalPerimeter;fillColor=strokeColor;rotation=90;" parent="iTmUbNezKQguydYjmuNl-1" vertex="1">
          <mxGeometry x="362.5" y="215" width="5" height="80" as="geometry" />
        </mxCell>
        <mxCell id="T1ciDuG5MArBPZRJhuPc-25" value="[ja]" style="edgeStyle=orthogonalEdgeStyle;rounded=0;orthogonalLoop=1;jettySize=auto;html=1;entryX=-0.456;entryY=0.498;entryDx=0;entryDy=0;entryPerimeter=0;" parent="iTmUbNezKQguydYjmuNl-1" source="T1ciDuG5MArBPZRJhuPc-11" target="T1ciDuG5MArBPZRJhuPc-22" edge="1">
          <mxGeometry x="-0.5027" relative="1" as="geometry">
            <mxPoint y="1" as="offset" />
          </mxGeometry>
        </mxCell>
        <mxCell id="T1ciDuG5MArBPZRJhuPc-35" style="edgeStyle=orthogonalEdgeStyle;rounded=0;orthogonalLoop=1;jettySize=auto;html=1;exitX=0;exitY=0.5;exitDx=0;exitDy=0;" parent="iTmUbNezKQguydYjmuNl-1" source="T1ciDuG5MArBPZRJhuPc-26" target="T1ciDuG5MArBPZRJhuPc-29" edge="1">
          <mxGeometry relative="1" as="geometry" />
        </mxCell>
        <mxCell id="T1ciDuG5MArBPZRJhuPc-26" value="Urlaubsantrag&lt;br&gt;&lt;br&gt;[in PrÃ¼fung]" style="html=1;align=center;verticalAlign=middle;rounded=0;absoluteArcSize=1;arcSize=10;dashed=0;whiteSpace=wrap;fillColor=#d5e8d4;strokeColor=#82b366;" parent="iTmUbNezKQguydYjmuNl-1" vertex="1">
          <mxGeometry x="110" y="290.5" width="140" height="60" as="geometry" />
        </mxCell>
        <mxCell id="T1ciDuG5MArBPZRJhuPc-29" value="Antrag prÃ¼fen" style="html=1;align=center;verticalAlign=top;rounded=1;absoluteArcSize=1;arcSize=10;dashed=0;whiteSpace=wrap;fillColor=#fff2cc;strokeColor=#d6b656;" parent="iTmUbNezKQguydYjmuNl-1" vertex="1">
          <mxGeometry x="30" y="380" width="110" height="30" as="geometry" />
        </mxCell>
        <mxCell id="T1ciDuG5MArBPZRJhuPc-32" value="Antrag prÃ¼fen" style="html=1;align=center;verticalAlign=top;rounded=1;absoluteArcSize=1;arcSize=10;dashed=0;whiteSpace=wrap;fillColor=#fff2cc;strokeColor=#d6b656;" parent="iTmUbNezKQguydYjmuNl-1" vertex="1">
          <mxGeometry x="365" y="424.75" width="110" height="30" as="geometry" />
        </mxCell>
        <mxCell id="T1ciDuG5MArBPZRJhuPc-38" value="" style="rhombus;fillColor=#f8cecc;strokeColor=#b85450;" parent="iTmUbNezKQguydYjmuNl-1" vertex="1">
          <mxGeometry x="337.5" y="550" width="30" height="30" as="geometry" />
        </mxCell>
        <mxCell id="T1ciDuG5MArBPZRJhuPc-39" value="Antrag genehmigt?" style="text;html=1;strokeColor=none;fillColor=none;align=center;verticalAlign=middle;whiteSpace=wrap;rounded=0;" parent="iTmUbNezKQguydYjmuNl-1" vertex="1">
          <mxGeometry x="390" y="510" width="60" height="30" as="geometry" />
        </mxCell>
        <mxCell id="T1ciDuG5MArBPZRJhuPc-40" value="" style="rhombus;fillColor=#f8cecc;strokeColor=#b85450;" parent="iTmUbNezKQguydYjmuNl-1" vertex="1">
          <mxGeometry x="100" y="450" width="30" height="30" as="geometry" />
        </mxCell>
        <mxCell id="T1ciDuG5MArBPZRJhuPc-41" value="Antrag genehmigt?" style="text;html=1;strokeColor=none;fillColor=none;align=center;verticalAlign=middle;whiteSpace=wrap;rounded=0;" parent="iTmUbNezKQguydYjmuNl-1" vertex="1">
          <mxGeometry x="30" y="450" width="60" height="30" as="geometry" />
        </mxCell>
        <mxCell id="T1ciDuG5MArBPZRJhuPc-44" style="edgeStyle=orthogonalEdgeStyle;rounded=0;orthogonalLoop=1;jettySize=auto;html=1;entryX=0.5;entryY=0;entryDx=0;entryDy=0;" parent="iTmUbNezKQguydYjmuNl-1" source="T1ciDuG5MArBPZRJhuPc-42" target="T1ciDuG5MArBPZRJhuPc-32" edge="1">
          <mxGeometry relative="1" as="geometry" />
        </mxCell>
        <mxCell id="T1ciDuG5MArBPZRJhuPc-42" value="Urlaubsantrag&lt;br&gt;&lt;br&gt;[in PrÃ¼fung]" style="html=1;align=center;verticalAlign=middle;rounded=0;absoluteArcSize=1;arcSize=10;dashed=0;whiteSpace=wrap;fillColor=#d5e8d4;strokeColor=#82b366;" parent="iTmUbNezKQguydYjmuNl-1" vertex="1">
          <mxGeometry x="350" y="335.25" width="140" height="60" as="geometry" />
        </mxCell>
        <mxCell id="T1ciDuG5MArBPZRJhuPc-45" value="Antrag ablehnen" style="html=1;align=center;verticalAlign=top;rounded=1;absoluteArcSize=1;arcSize=10;dashed=0;whiteSpace=wrap;fillColor=#fff2cc;strokeColor=#d6b656;" parent="iTmUbNezKQguydYjmuNl-1" vertex="1">
          <mxGeometry x="197" y="620" width="110" height="30" as="geometry" />
        </mxCell>
        <mxCell id="T1ciDuG5MArBPZRJhuPc-46" value="Antrag archivieren" style="html=1;align=center;verticalAlign=top;rounded=1;absoluteArcSize=1;arcSize=10;dashed=0;whiteSpace=wrap;fillColor=#fff2cc;strokeColor=#d6b656;" parent="iTmUbNezKQguydYjmuNl-1" vertex="1">
          <mxGeometry x="330" y="680" width="110" height="30" as="geometry" />
        </mxCell>
        <mxCell id="T1ciDuG5MArBPZRJhuPc-54" value="" style="ellipse;html=1;shape=endState;fillColor=strokeColor;" parent="iTmUbNezKQguydYjmuNl-1" vertex="1">
          <mxGeometry x="460" y="680" width="30" height="30" as="geometry" />
        </mxCell>
        <mxCell id="T1ciDuG5MArBPZRJhuPc-64" style="edgeStyle=orthogonalEdgeStyle;rounded=0;orthogonalLoop=1;jettySize=auto;html=1;entryX=0.5;entryY=1;entryDx=0;entryDy=0;" parent="iTmUbNezKQguydYjmuNl-1" source="iTmUbNezKQguydYjmuNl-30" target="T1ciDuG5MArBPZRJhuPc-1" edge="1">
          <mxGeometry relative="1" as="geometry" />
        </mxCell>
        <mxCell id="iTmUbNezKQguydYjmuNl-30" value="" style="ellipse;fillColor=strokeColor;html=1;fontStyle=4" parent="iTmUbNezKQguydYjmuNl-1" vertex="1">
          <mxGeometry x="657.5" y="210" width="30" height="30" as="geometry" />
        </mxCell>
        <mxCell id="iTmUbNezKQguydYjmuNl-31" value="Start" style="text;html=1;strokeColor=none;fillColor=none;align=center;verticalAlign=middle;whiteSpace=wrap;rounded=0;" parent="iTmUbNezKQguydYjmuNl-1" vertex="1">
          <mxGeometry x="680" y="210" width="60" height="30" as="geometry" />
        </mxCell>
        <mxCell id="T1ciDuG5MArBPZRJhuPc-65" value="SendSignalAction1" style="html=1;shape=mxgraph.infographic.ribbonSimple;notch1=0;notch2=20;align=center;verticalAlign=middle;fontSize=14;fontStyle=0;fillColor=#FFFFFF;whiteSpace=wrap;" parent="iTmUbNezKQguydYjmuNl-1" vertex="1">
          <mxGeometry x="687.5" y="730" width="160" height="40" as="geometry" />
        </mxCell>
      </root>
    </mxGraphModel>
  </diagram>
  <diagram name="v2" id="pbPmYXCS5b3vTXi26WXn">
    <mxGraphModel dx="1434" dy="839" grid="1" gridSize="10" guides="1" tooltips="1" connect="1" arrows="1" fold="1" page="1" pageScale="1" pageWidth="583" pageHeight="827" math="0" shadow="0">
      <root>
        <mxCell id="tGAYz98FWAuGosfe7zp1-0" />
        <mxCell id="tGAYz98FWAuGosfe7zp1-1" parent="tGAYz98FWAuGosfe7zp1-0" />
        <mxCell id="tGAYz98FWAuGosfe7zp1-2" value="UrlaubsantrÃ¤ge" style="shape=umlFrame;whiteSpace=wrap;html=1;pointerEvents=0;recursiveResize=0;container=1;collapsible=0;width=160;fontStyle=1" parent="tGAYz98FWAuGosfe7zp1-1" vertex="1">
          <mxGeometry x="40" y="40" width="1070" height="1270" as="geometry" />
        </mxCell>
        <mxCell id="tGAYz98FWAuGosfe7zp1-3" value="Personen" style="shape=table;html=1;whiteSpace=wrap;startSize=20;container=1;collapsible=0;childLayout=tableLayout;fillColor=none;swimlaneFillColor=none;strokeColor=none;flipH=1;flipV=0;" parent="tGAYz98FWAuGosfe7zp1-2" vertex="1">
          <mxGeometry x="10" y="30" width="830" height="940" as="geometry" />
        </mxCell>
        <mxCell id="tGAYz98FWAuGosfe7zp1-4" value="" style="shape=partialRectangle;html=1;whiteSpace=wrap;collapsible=0;dropTarget=0;pointerEvents=0;fillColor=none;top=0;left=0;bottom=0;right=0;points=[[0,0.5],[1,0.5]];portConstraint=eastwest;strokeColor=none;" parent="tGAYz98FWAuGosfe7zp1-3" vertex="1">
          <mxGeometry y="20" width="830" height="51" as="geometry" />
        </mxCell>
        <mxCell id="tGAYz98FWAuGosfe7zp1-5" value="Stellvertretung" style="shape=partialRectangle;html=1;whiteSpace=wrap;connectable=0;fillColor=none;top=1;left=1;bottom=1;right=1;overflow=hidden;" parent="tGAYz98FWAuGosfe7zp1-4" vertex="1">
          <mxGeometry width="230" height="51" as="geometry">
            <mxRectangle width="230" height="51" as="alternateBounds" />
          </mxGeometry>
        </mxCell>
        <mxCell id="tGAYz98FWAuGosfe7zp1-6" value="Antragsstellende" style="shape=partialRectangle;html=1;whiteSpace=wrap;connectable=0;fillColor=none;top=1;left=1;bottom=1;right=1;overflow=hidden;" parent="tGAYz98FWAuGosfe7zp1-4" vertex="1">
          <mxGeometry x="230" width="310" height="51" as="geometry">
            <mxRectangle width="310" height="51" as="alternateBounds" />
          </mxGeometry>
        </mxCell>
        <mxCell id="tGAYz98FWAuGosfe7zp1-7" value="Abteilungsleitung" style="shape=partialRectangle;html=1;whiteSpace=wrap;connectable=0;fillColor=none;top=1;left=1;bottom=1;right=1;overflow=hidden;" parent="tGAYz98FWAuGosfe7zp1-4" vertex="1">
          <mxGeometry x="540" width="290" height="51" as="geometry">
            <mxRectangle width="290" height="51" as="alternateBounds" />
          </mxGeometry>
        </mxCell>
        <mxCell id="tGAYz98FWAuGosfe7zp1-8" value="" style="shape=partialRectangle;html=1;whiteSpace=wrap;collapsible=0;dropTarget=0;pointerEvents=0;fillColor=none;top=1;left=1;bottom=1;right=1;points=[[0,0.5],[1,0.5]];portConstraint=eastwest;" parent="tGAYz98FWAuGosfe7zp1-3" vertex="1">
          <mxGeometry y="71" width="830" height="869" as="geometry" />
        </mxCell>
        <mxCell id="tGAYz98FWAuGosfe7zp1-9" value="" style="shape=partialRectangle;html=1;whiteSpace=wrap;connectable=0;fillColor=none;top=1;left=1;bottom=1;right=1;overflow=hidden;" parent="tGAYz98FWAuGosfe7zp1-8" vertex="1">
          <mxGeometry width="230" height="869" as="geometry">
            <mxRectangle width="230" height="869" as="alternateBounds" />
          </mxGeometry>
        </mxCell>
        <mxCell id="tGAYz98FWAuGosfe7zp1-10" style="shape=partialRectangle;html=1;whiteSpace=wrap;connectable=0;fillColor=none;top=1;left=1;bottom=1;right=1;overflow=hidden;" parent="tGAYz98FWAuGosfe7zp1-8" vertex="1">
          <mxGeometry x="230" width="310" height="869" as="geometry">
            <mxRectangle width="310" height="869" as="alternateBounds" />
          </mxGeometry>
        </mxCell>
        <mxCell id="tGAYz98FWAuGosfe7zp1-11" style="shape=partialRectangle;html=1;whiteSpace=wrap;connectable=0;fillColor=none;top=1;left=1;bottom=1;right=1;overflow=hidden;" parent="tGAYz98FWAuGosfe7zp1-8" vertex="1">
          <mxGeometry x="540" width="290" height="869" as="geometry">
            <mxRectangle width="290" height="869" as="alternateBounds" />
          </mxGeometry>
        </mxCell>
        <mxCell id="tGAYz98FWAuGosfe7zp1-12" value="" style="html=1;align=center;verticalAlign=top;rounded=1;absoluteArcSize=1;arcSize=20;dashed=1;whiteSpace=wrap;fillColor=#f5f5f5;fontColor=#333333;strokeColor=#666666;" parent="tGAYz98FWAuGosfe7zp1-2" vertex="1">
          <mxGeometry x="20" y="340" width="712" height="354" as="geometry" />
        </mxCell>
        <mxCell id="tGAYz98FWAuGosfe7zp1-13" style="edgeStyle=orthogonalEdgeStyle;rounded=0;orthogonalLoop=1;jettySize=auto;html=1;" parent="tGAYz98FWAuGosfe7zp1-2" source="tGAYz98FWAuGosfe7zp1-14" target="tGAYz98FWAuGosfe7zp1-15" edge="1">
          <mxGeometry relative="1" as="geometry" />
        </mxCell>
        <mxCell id="tGAYz98FWAuGosfe7zp1-14" value="Urlaub beantragen" style="html=1;align=center;verticalAlign=top;rounded=1;absoluteArcSize=1;arcSize=10;dashed=0;whiteSpace=wrap;fillColor=#fff2cc;strokeColor=#d6b656;" parent="tGAYz98FWAuGosfe7zp1-2" vertex="1">
          <mxGeometry x="283.75" y="180" width="140" height="30" as="geometry" />
        </mxCell>
        <mxCell id="tGAYz98FWAuGosfe7zp1-15" value="Urlaubsantrag&lt;br&gt;&lt;br&gt;[neu]" style="html=1;align=center;verticalAlign=middle;rounded=0;absoluteArcSize=1;arcSize=10;dashed=0;whiteSpace=wrap;fillColor=#d5e8d4;strokeColor=#82b366;" parent="tGAYz98FWAuGosfe7zp1-2" vertex="1">
          <mxGeometry x="480" y="165" width="140" height="60" as="geometry" />
        </mxCell>
        <mxCell id="tGAYz98FWAuGosfe7zp1-16" value="{bennent Zeitraum und&lt;br&gt;&amp;nbsp;Stellvertretung}" style="text;verticalAlign=middle;align=center;html=1;fillColor=default;" parent="tGAYz98FWAuGosfe7zp1-15" vertex="1">
          <mxGeometry y="60" width="140" height="30" as="geometry" />
        </mxCell>
        <mxCell id="tGAYz98FWAuGosfe7zp1-17" style="edgeStyle=orthogonalEdgeStyle;rounded=0;orthogonalLoop=1;jettySize=auto;html=1;exitX=1;exitY=0.5;exitDx=0;exitDy=0;" parent="tGAYz98FWAuGosfe7zp1-2" source="tGAYz98FWAuGosfe7zp1-19" target="tGAYz98FWAuGosfe7zp1-23" edge="1">
          <mxGeometry relative="1" as="geometry" />
        </mxCell>
        <mxCell id="tGAYz98FWAuGosfe7zp1-18" value="[nein]" style="edgeLabel;html=1;align=center;verticalAlign=middle;resizable=0;points=[];" parent="tGAYz98FWAuGosfe7zp1-17" vertex="1" connectable="0">
          <mxGeometry x="-0.7913" relative="1" as="geometry">
            <mxPoint y="-10" as="offset" />
          </mxGeometry>
        </mxCell>
        <mxCell id="tGAYz98FWAuGosfe7zp1-19" value="" style="rhombus;fillColor=#f8cecc;strokeColor=#b85450;" parent="tGAYz98FWAuGosfe7zp1-2" vertex="1">
          <mxGeometry x="710" y="225" width="30" height="30" as="geometry" />
        </mxCell>
        <mxCell id="tGAYz98FWAuGosfe7zp1-20" value="Urlaubskontingent ausreichend?" style="text;html=1;strokeColor=none;fillColor=none;align=center;verticalAlign=middle;whiteSpace=wrap;rounded=0;" parent="tGAYz98FWAuGosfe7zp1-2" vertex="1">
          <mxGeometry x="695" y="260" width="60" height="30" as="geometry" />
        </mxCell>
        <mxCell id="tGAYz98FWAuGosfe7zp1-23" value="Antrag ablehnen" style="html=1;align=center;verticalAlign=top;rounded=1;absoluteArcSize=1;arcSize=10;dashed=0;whiteSpace=wrap;fillColor=#fff2cc;strokeColor=#d6b656;" parent="tGAYz98FWAuGosfe7zp1-2" vertex="1">
          <mxGeometry x="695" y="740" width="140" height="30" as="geometry" />
        </mxCell>
        <mxCell id="tGAYz98FWAuGosfe7zp1-24" style="edgeStyle=orthogonalEdgeStyle;rounded=0;orthogonalLoop=1;jettySize=auto;html=1;entryX=0.5;entryY=0;entryDx=0;entryDy=0;exitX=1;exitY=0.5;exitDx=0;exitDy=0;" parent="tGAYz98FWAuGosfe7zp1-2" source="tGAYz98FWAuGosfe7zp1-15" target="tGAYz98FWAuGosfe7zp1-19" edge="1">
          <mxGeometry relative="1" as="geometry" />
        </mxCell>
        <mxCell id="tGAYz98FWAuGosfe7zp1-25" style="edgeStyle=orthogonalEdgeStyle;rounded=0;orthogonalLoop=1;jettySize=auto;html=1;entryX=1;entryY=0.5;entryDx=0;entryDy=0;exitX=0.999;exitY=0.809;exitDx=0;exitDy=0;exitPerimeter=0;jumpStyle=arc;" parent="tGAYz98FWAuGosfe7zp1-2" source="tGAYz98FWAuGosfe7zp1-27" target="tGAYz98FWAuGosfe7zp1-30" edge="1">
          <mxGeometry relative="1" as="geometry">
            <mxPoint x="343.75" y="350" as="sourcePoint" />
          </mxGeometry>
        </mxCell>
        <mxCell id="tGAYz98FWAuGosfe7zp1-26" style="edgeStyle=orthogonalEdgeStyle;rounded=0;orthogonalLoop=1;jettySize=auto;html=1;entryX=0.5;entryY=0;entryDx=0;entryDy=0;" parent="tGAYz98FWAuGosfe7zp1-2" source="tGAYz98FWAuGosfe7zp1-27" target="tGAYz98FWAuGosfe7zp1-38" edge="1">
          <mxGeometry relative="1" as="geometry" />
        </mxCell>
        <mxCell id="WH7u0tNet71lAj29ybpv-10" style="edgeStyle=orthogonalEdgeStyle;rounded=0;orthogonalLoop=1;jettySize=auto;html=1;exitX=1.1;exitY=0.644;exitDx=0;exitDy=0;exitPerimeter=0;" parent="tGAYz98FWAuGosfe7zp1-2" source="tGAYz98FWAuGosfe7zp1-27" target="WH7u0tNet71lAj29ybpv-9" edge="1">
          <mxGeometry relative="1" as="geometry">
            <Array as="points">
              <mxPoint x="641" y="420" />
              <mxPoint x="395" y="420" />
            </Array>
          </mxGeometry>
        </mxCell>
        <mxCell id="tGAYz98FWAuGosfe7zp1-27" value="" style="html=1;points=[];perimeter=orthogonalPerimeter;fillColor=strokeColor;rotation=90;" parent="tGAYz98FWAuGosfe7zp1-2" vertex="1">
          <mxGeometry x="650" y="334" width="5" height="80" as="geometry" />
        </mxCell>
        <mxCell id="tGAYz98FWAuGosfe7zp1-28" value="[ja]" style="edgeStyle=orthogonalEdgeStyle;rounded=0;orthogonalLoop=1;jettySize=auto;html=1;entryX=-0.456;entryY=0.498;entryDx=0;entryDy=0;entryPerimeter=0;" parent="tGAYz98FWAuGosfe7zp1-2" source="tGAYz98FWAuGosfe7zp1-19" target="tGAYz98FWAuGosfe7zp1-27" edge="1">
          <mxGeometry x="-0.6784" y="-10" relative="1" as="geometry">
            <mxPoint as="offset" />
          </mxGeometry>
        </mxCell>
        <mxCell id="tGAYz98FWAuGosfe7zp1-29" style="edgeStyle=orthogonalEdgeStyle;rounded=0;orthogonalLoop=1;jettySize=auto;html=1;exitX=0;exitY=0.5;exitDx=0;exitDy=0;" parent="tGAYz98FWAuGosfe7zp1-2" source="tGAYz98FWAuGosfe7zp1-30" target="tGAYz98FWAuGosfe7zp1-31" edge="1">
          <mxGeometry relative="1" as="geometry" />
        </mxCell>
        <mxCell id="tGAYz98FWAuGosfe7zp1-30" value="Urlaubsantrag&lt;br&gt;&lt;br&gt;[in PrÃ¼fung]" style="html=1;align=center;verticalAlign=middle;rounded=0;absoluteArcSize=1;arcSize=10;dashed=0;whiteSpace=wrap;fillColor=#d5e8d4;strokeColor=#82b366;" parent="tGAYz98FWAuGosfe7zp1-2" vertex="1">
          <mxGeometry x="160" y="374" width="140" height="60" as="geometry" />
        </mxCell>
        <mxCell id="WH7u0tNet71lAj29ybpv-14" style="edgeStyle=orthogonalEdgeStyle;rounded=0;orthogonalLoop=1;jettySize=auto;html=1;" parent="tGAYz98FWAuGosfe7zp1-2" source="tGAYz98FWAuGosfe7zp1-31" target="WH7u0tNet71lAj29ybpv-11" edge="1">
          <mxGeometry relative="1" as="geometry" />
        </mxCell>
        <mxCell id="tGAYz98FWAuGosfe7zp1-31" value="Antrag prÃ¼fen" style="html=1;align=center;verticalAlign=top;rounded=1;absoluteArcSize=1;arcSize=10;dashed=0;whiteSpace=wrap;fillColor=#fff2cc;strokeColor=#d6b656;" parent="tGAYz98FWAuGosfe7zp1-2" vertex="1">
          <mxGeometry x="28.75" y="470" width="110" height="30" as="geometry" />
        </mxCell>
        <mxCell id="12EK2Sy3Ee7onRRNNuCQ-5" style="edgeStyle=orthogonalEdgeStyle;rounded=0;orthogonalLoop=1;jettySize=auto;html=1;" parent="tGAYz98FWAuGosfe7zp1-2" source="tGAYz98FWAuGosfe7zp1-32" target="12EK2Sy3Ee7onRRNNuCQ-2" edge="1">
          <mxGeometry relative="1" as="geometry" />
        </mxCell>
        <mxCell id="tGAYz98FWAuGosfe7zp1-32" value="Antrag prÃ¼fen" style="html=1;align=center;verticalAlign=top;rounded=1;absoluteArcSize=1;arcSize=10;dashed=0;whiteSpace=wrap;fillColor=#fff2cc;strokeColor=#d6b656;" parent="tGAYz98FWAuGosfe7zp1-2" vertex="1">
          <mxGeometry x="597.5" y="520" width="110" height="30" as="geometry" />
        </mxCell>
        <mxCell id="tGAYz98FWAuGosfe7zp1-37" style="edgeStyle=orthogonalEdgeStyle;rounded=0;orthogonalLoop=1;jettySize=auto;html=1;entryX=0.5;entryY=0;entryDx=0;entryDy=0;" parent="tGAYz98FWAuGosfe7zp1-2" source="tGAYz98FWAuGosfe7zp1-38" target="tGAYz98FWAuGosfe7zp1-32" edge="1">
          <mxGeometry relative="1" as="geometry" />
        </mxCell>
        <mxCell id="tGAYz98FWAuGosfe7zp1-38" value="Urlaubsantrag&lt;br&gt;&lt;br&gt;[in PrÃ¼fung]" style="html=1;align=center;verticalAlign=middle;rounded=0;absoluteArcSize=1;arcSize=10;dashed=0;whiteSpace=wrap;fillColor=#d5e8d4;strokeColor=#82b366;" parent="tGAYz98FWAuGosfe7zp1-2" vertex="1">
          <mxGeometry x="582.5" y="440" width="140" height="60" as="geometry" />
        </mxCell>
        <mxCell id="tGAYz98FWAuGosfe7zp1-40" value="Antrag archivieren" style="html=1;align=center;verticalAlign=top;rounded=1;absoluteArcSize=1;arcSize=10;dashed=0;whiteSpace=wrap;fillColor=#fff2cc;strokeColor=#d6b656;" parent="tGAYz98FWAuGosfe7zp1-2" vertex="1">
          <mxGeometry x="620" y="920" width="110" height="30" as="geometry" />
        </mxCell>
        <mxCell id="tGAYz98FWAuGosfe7zp1-41" value="" style="ellipse;html=1;shape=endState;fillColor=strokeColor;" parent="tGAYz98FWAuGosfe7zp1-2" vertex="1">
          <mxGeometry x="770" y="920" width="30" height="30" as="geometry" />
        </mxCell>
        <mxCell id="tGAYz98FWAuGosfe7zp1-42" style="edgeStyle=orthogonalEdgeStyle;rounded=0;orthogonalLoop=1;jettySize=auto;html=1;entryX=0.5;entryY=0;entryDx=0;entryDy=0;" parent="tGAYz98FWAuGosfe7zp1-2" source="tGAYz98FWAuGosfe7zp1-43" target="tGAYz98FWAuGosfe7zp1-14" edge="1">
          <mxGeometry relative="1" as="geometry" />
        </mxCell>
        <mxCell id="tGAYz98FWAuGosfe7zp1-43" value="" style="ellipse;fillColor=strokeColor;html=1;fontStyle=4" parent="tGAYz98FWAuGosfe7zp1-2" vertex="1">
          <mxGeometry x="340" y="120" width="30" height="30" as="geometry" />
        </mxCell>
        <mxCell id="tGAYz98FWAuGosfe7zp1-44" value="Start" style="text;html=1;strokeColor=none;fillColor=none;align=center;verticalAlign=middle;whiteSpace=wrap;rounded=0;" parent="tGAYz98FWAuGosfe7zp1-2" vertex="1">
          <mxGeometry x="363.75" y="120" width="60" height="30" as="geometry" />
        </mxCell>
        <mxCell id="WH7u0tNet71lAj29ybpv-4" value="Antrag ablehnen" style="html=1;align=center;verticalAlign=top;rounded=1;absoluteArcSize=1;arcSize=10;dashed=0;whiteSpace=wrap;fillColor=#fff2cc;strokeColor=#d6b656;" parent="tGAYz98FWAuGosfe7zp1-2" vertex="1">
          <mxGeometry x="582.5" y="790" width="140" height="30" as="geometry" />
        </mxCell>
        <mxCell id="WH7u0tNet71lAj29ybpv-5" value="" style="shape=collate;html=1;fillColor=#f8cecc;strokeColor=#b85450;" parent="tGAYz98FWAuGosfe7zp1-2" vertex="1">
          <mxGeometry x="460" y="740" width="40" height="40" as="geometry" />
        </mxCell>
        <mxCell id="WH7u0tNet71lAj29ybpv-8" value="AcceptEventAction1" style="html=1;shape=mxgraph.infographic.ribbonSimple;notch1=20;notch2=0;align=center;verticalAlign=middle;fontSize=14;fontStyle=0;fillColor=#f8cecc;flipH=0;spacingRight=0;spacingLeft=14;whiteSpace=wrap;strokeColor=#b85450;" parent="tGAYz98FWAuGosfe7zp1-2" vertex="1">
          <mxGeometry x="253.75" y="820" width="170" height="40" as="geometry" />
        </mxCell>
        <mxCell id="WH7u0tNet71lAj29ybpv-9" value="Warten" style="html=1;align=center;verticalAlign=top;rounded=1;absoluteArcSize=1;arcSize=10;dashed=0;whiteSpace=wrap;fillColor=#fff2cc;strokeColor=#d6b656;" parent="tGAYz98FWAuGosfe7zp1-2" vertex="1">
          <mxGeometry x="340" y="455" width="110" height="30" as="geometry" />
        </mxCell>
        <mxCell id="WH7u0tNet71lAj29ybpv-15" value="[genehmigen]" style="edgeStyle=orthogonalEdgeStyle;rounded=0;orthogonalLoop=1;jettySize=auto;html=1;labelBackgroundColor=none;entryX=0.033;entryY=0.818;entryDx=0;entryDy=0;entryPerimeter=0;" parent="tGAYz98FWAuGosfe7zp1-2" source="WH7u0tNet71lAj29ybpv-11" target="12EK2Sy3Ee7onRRNNuCQ-3" edge="1">
          <mxGeometry x="-0.7177" y="15" relative="1" as="geometry">
            <mxPoint x="178.1724137931035" y="570" as="targetPoint" />
            <mxPoint as="offset" />
          </mxGeometry>
        </mxCell>
        <mxCell id="WH7u0tNet71lAj29ybpv-17" value="[ablehnen]" style="edgeStyle=orthogonalEdgeStyle;rounded=0;orthogonalLoop=1;jettySize=auto;html=1;entryX=0.5;entryY=0;entryDx=0;entryDy=0;labelBackgroundColor=none;" parent="tGAYz98FWAuGosfe7zp1-2" source="WH7u0tNet71lAj29ybpv-11" target="WH7u0tNet71lAj29ybpv-4" edge="1">
          <mxGeometry x="-0.9279" y="-34" relative="1" as="geometry">
            <Array as="points">
              <mxPoint x="84" y="630" />
              <mxPoint x="653" y="630" />
            </Array>
            <mxPoint as="offset" />
          </mxGeometry>
        </mxCell>
        <mxCell id="WH7u0tNet71lAj29ybpv-11" value="" style="rhombus;fillColor=#f8cecc;strokeColor=#b85450;" parent="tGAYz98FWAuGosfe7zp1-2" vertex="1">
          <mxGeometry x="68.75" y="520" width="30" height="30" as="geometry" />
        </mxCell>
        <mxCell id="12EK2Sy3Ee7onRRNNuCQ-1" value="[genehmigen]" style="edgeStyle=orthogonalEdgeStyle;rounded=0;orthogonalLoop=1;jettySize=auto;html=1;labelBackgroundColor=none;exitX=0;exitY=0.5;exitDx=0;exitDy=0;entryX=0.033;entryY=0.182;entryDx=0;entryDy=0;entryPerimeter=0;" parent="tGAYz98FWAuGosfe7zp1-2" source="12EK2Sy3Ee7onRRNNuCQ-2" target="12EK2Sy3Ee7onRRNNuCQ-3" edge="1">
          <mxGeometry x="-0.7378" y="-15" relative="1" as="geometry">
            <mxPoint x="600" y="610" as="targetPoint" />
            <mxPoint as="offset" />
          </mxGeometry>
        </mxCell>
        <mxCell id="12EK2Sy3Ee7onRRNNuCQ-6" value="[ablehnen]" style="edgeStyle=orthogonalEdgeStyle;rounded=0;orthogonalLoop=1;jettySize=auto;html=1;labelBackgroundColor=none;" parent="tGAYz98FWAuGosfe7zp1-2" source="12EK2Sy3Ee7onRRNNuCQ-2" target="WH7u0tNet71lAj29ybpv-4" edge="1">
          <mxGeometry x="-0.7895" y="28" relative="1" as="geometry">
            <mxPoint as="offset" />
          </mxGeometry>
        </mxCell>
        <mxCell id="12EK2Sy3Ee7onRRNNuCQ-2" value="" style="rhombus;fillColor=#f8cecc;strokeColor=#b85450;" parent="tGAYz98FWAuGosfe7zp1-2" vertex="1">
          <mxGeometry x="637.5" y="570" width="30" height="30" as="geometry" />
        </mxCell>
        <mxCell id="12EK2Sy3Ee7onRRNNuCQ-3" value="" style="html=1;points=[];perimeter=orthogonalPerimeter;fillColor=strokeColor;rotation=90;" parent="tGAYz98FWAuGosfe7zp1-2" vertex="1">
          <mxGeometry x="391.25" y="520" width="5" height="80" as="geometry" />
        </mxCell>
        <mxCell id="12EK2Sy3Ee7onRRNNuCQ-4" style="edgeStyle=orthogonalEdgeStyle;rounded=0;orthogonalLoop=1;jettySize=auto;html=1;entryX=0.033;entryY=0.495;entryDx=0;entryDy=0;entryPerimeter=0;" parent="tGAYz98FWAuGosfe7zp1-2" source="WH7u0tNet71lAj29ybpv-9" target="12EK2Sy3Ee7onRRNNuCQ-3" edge="1">
          <mxGeometry relative="1" as="geometry" />
        </mxCell>
      </root>
    </mxGraphModel>
  </diagram>
  <diagram name="v3" id="58ELvmSQNaQwHzaC8Lkt">
    <mxGraphModel dx="1434" dy="839" grid="1" gridSize="10" guides="1" tooltips="1" connect="1" arrows="1" fold="1" page="1" pageScale="1" pageWidth="827" pageHeight="1169" math="0" shadow="0">
      <root>
        <mxCell id="Z2tcvn6Gc2qMjcab1dwy-0" />
        <mxCell id="Z2tcvn6Gc2qMjcab1dwy-1" parent="Z2tcvn6Gc2qMjcab1dwy-0" />
        <mxCell id="Z2tcvn6Gc2qMjcab1dwy-2" value="UrlaubsantrÃ¤ge" style="shape=umlFrame;whiteSpace=wrap;html=1;pointerEvents=0;recursiveResize=0;container=1;collapsible=0;width=160;fontStyle=1" parent="Z2tcvn6Gc2qMjcab1dwy-1" vertex="1">
          <mxGeometry width="800" height="780" as="geometry" />
        </mxCell>
        <mxCell id="Z2tcvn6Gc2qMjcab1dwy-12" value="" style="html=1;align=center;verticalAlign=top;rounded=1;absoluteArcSize=1;arcSize=20;dashed=1;whiteSpace=wrap;fillColor=#f5f5f5;fontColor=#333333;strokeColor=#666666;" parent="Z2tcvn6Gc2qMjcab1dwy-2" vertex="1">
          <mxGeometry x="20" y="260" width="460" height="250" as="geometry" />
        </mxCell>
        <mxCell id="NLIEJxQopgI-QllRl0aE-0" value="&lt;b&gt;Personen&lt;/b&gt;" style="shape=table;html=1;whiteSpace=wrap;startSize=20;container=1;collapsible=0;childLayout=tableLayout;fillColor=none;swimlaneFillColor=none;strokeColor=none;flipH=0;flipV=0;direction=east;" parent="Z2tcvn6Gc2qMjcab1dwy-2" vertex="1">
          <mxGeometry x="10" y="20" width="780" height="750" as="geometry" />
        </mxCell>
        <mxCell id="NLIEJxQopgI-QllRl0aE-1" value="" style="shape=partialRectangle;html=1;whiteSpace=wrap;collapsible=0;dropTarget=0;pointerEvents=0;fillColor=none;top=0;left=0;bottom=0;right=0;points=[[0,0.5],[1,0.5]];portConstraint=eastwest;strokeColor=none;" parent="NLIEJxQopgI-QllRl0aE-0" vertex="1">
          <mxGeometry y="20" width="780" height="42" as="geometry" />
        </mxCell>
        <mxCell id="NLIEJxQopgI-QllRl0aE-2" value="Stellvertretung" style="shape=partialRectangle;html=1;whiteSpace=wrap;connectable=0;fillColor=none;top=1;left=1;bottom=1;right=1;overflow=hidden;flipH=1;fontStyle=1" parent="NLIEJxQopgI-QllRl0aE-1" vertex="1">
          <mxGeometry width="159" height="42" as="geometry">
            <mxRectangle width="159" height="42" as="alternateBounds" />
          </mxGeometry>
        </mxCell>
        <mxCell id="NLIEJxQopgI-QllRl0aE-3" value="Abteilungsleitung" style="shape=partialRectangle;html=1;whiteSpace=wrap;connectable=0;fillColor=none;top=1;left=1;bottom=1;right=1;overflow=hidden;fontStyle=1" parent="NLIEJxQopgI-QllRl0aE-1" vertex="1">
          <mxGeometry x="159" width="390" height="42" as="geometry">
            <mxRectangle width="390" height="42" as="alternateBounds" />
          </mxGeometry>
        </mxCell>
        <mxCell id="NLIEJxQopgI-QllRl0aE-4" value="Antragsstellende" style="shape=partialRectangle;html=1;whiteSpace=wrap;connectable=0;fillColor=none;top=1;left=1;bottom=1;right=1;overflow=hidden;fontStyle=1" parent="NLIEJxQopgI-QllRl0aE-1" vertex="1">
          <mxGeometry x="549" width="231" height="42" as="geometry">
            <mxRectangle width="231" height="42" as="alternateBounds" />
          </mxGeometry>
        </mxCell>
        <mxCell id="NLIEJxQopgI-QllRl0aE-74" style="shape=partialRectangle;html=1;whiteSpace=wrap;collapsible=0;dropTarget=0;pointerEvents=0;fillColor=none;top=0;left=0;bottom=0;right=0;points=[[0,0.5],[1,0.5]];portConstraint=eastwest;strokeColor=none;" parent="NLIEJxQopgI-QllRl0aE-0" vertex="1">
          <mxGeometry y="62" width="780" height="688" as="geometry" />
        </mxCell>
        <mxCell id="NLIEJxQopgI-QllRl0aE-75" style="shape=partialRectangle;html=1;whiteSpace=wrap;connectable=0;fillColor=none;top=1;left=1;bottom=1;right=1;overflow=hidden;flipH=1;" parent="NLIEJxQopgI-QllRl0aE-74" vertex="1">
          <mxGeometry width="159" height="688" as="geometry">
            <mxRectangle width="159" height="688" as="alternateBounds" />
          </mxGeometry>
        </mxCell>
        <mxCell id="NLIEJxQopgI-QllRl0aE-76" style="shape=partialRectangle;html=1;whiteSpace=wrap;connectable=0;fillColor=none;top=1;left=1;bottom=1;right=1;overflow=hidden;" parent="NLIEJxQopgI-QllRl0aE-74" vertex="1">
          <mxGeometry x="159" width="390" height="688" as="geometry">
            <mxRectangle width="390" height="688" as="alternateBounds" />
          </mxGeometry>
        </mxCell>
        <mxCell id="NLIEJxQopgI-QllRl0aE-77" style="shape=partialRectangle;html=1;whiteSpace=wrap;connectable=0;fillColor=none;top=1;left=1;bottom=1;right=1;overflow=hidden;" parent="NLIEJxQopgI-QllRl0aE-74" vertex="1">
          <mxGeometry x="549" width="231" height="688" as="geometry">
            <mxRectangle width="231" height="688" as="alternateBounds" />
          </mxGeometry>
        </mxCell>
        <mxCell id="NLIEJxQopgI-QllRl0aE-95" style="edgeStyle=orthogonalEdgeStyle;rounded=0;orthogonalLoop=1;jettySize=auto;html=1;" parent="Z2tcvn6Gc2qMjcab1dwy-2" source="Z2tcvn6Gc2qMjcab1dwy-14" target="Z2tcvn6Gc2qMjcab1dwy-15" edge="1">
          <mxGeometry relative="1" as="geometry">
            <Array as="points">
              <mxPoint x="711" y="150" />
            </Array>
          </mxGeometry>
        </mxCell>
        <mxCell id="Z2tcvn6Gc2qMjcab1dwy-14" value="Urlaub beantragen" style="html=1;align=center;verticalAlign=top;rounded=1;absoluteArcSize=1;arcSize=10;dashed=0;whiteSpace=wrap;fillColor=#fff2cc;strokeColor=#d6b656;" parent="Z2tcvn6Gc2qMjcab1dwy-2" vertex="1">
          <mxGeometry x="648.75" y="170" width="125" height="30" as="geometry" />
        </mxCell>
        <mxCell id="Z2tcvn6Gc2qMjcab1dwy-15" value="Urlaubsantrag&lt;br&gt;&lt;br&gt;[neu]" style="html=1;align=center;verticalAlign=middle;rounded=0;absoluteArcSize=1;arcSize=10;dashed=0;whiteSpace=wrap;fillColor=#d5e8d4;strokeColor=#82b366;" parent="Z2tcvn6Gc2qMjcab1dwy-2" vertex="1">
          <mxGeometry x="490" y="122.5" width="140" height="60" as="geometry" />
        </mxCell>
        <mxCell id="Z2tcvn6Gc2qMjcab1dwy-16" value="{benennt Zeitraum und&lt;br&gt;&amp;nbsp;Stellvertretung}" style="text;verticalAlign=middle;align=center;html=1;fillColor=default;" parent="Z2tcvn6Gc2qMjcab1dwy-15" vertex="1">
          <mxGeometry y="60" width="140" height="30" as="geometry" />
        </mxCell>
        <mxCell id="Z2tcvn6Gc2qMjcab1dwy-22" style="edgeStyle=orthogonalEdgeStyle;rounded=0;orthogonalLoop=1;jettySize=auto;html=1;entryX=1;entryY=0.5;entryDx=0;entryDy=0;exitX=0;exitY=0.5;exitDx=0;exitDy=0;" parent="Z2tcvn6Gc2qMjcab1dwy-2" source="Z2tcvn6Gc2qMjcab1dwy-15" target="Z2tcvn6Gc2qMjcab1dwy-19" edge="1">
          <mxGeometry relative="1" as="geometry" />
        </mxCell>
        <mxCell id="Z2tcvn6Gc2qMjcab1dwy-27" value="[ja]" style="edgeStyle=orthogonalEdgeStyle;rounded=0;orthogonalLoop=1;jettySize=auto;html=1;exitX=0;exitY=0.5;exitDx=0;exitDy=0;" parent="Z2tcvn6Gc2qMjcab1dwy-2" source="Z2tcvn6Gc2qMjcab1dwy-19" target="Z2tcvn6Gc2qMjcab1dwy-35" edge="1">
          <mxGeometry x="-0.6505" y="-12" relative="1" as="geometry">
            <mxPoint x="613" y="360" as="targetPoint" />
            <mxPoint as="offset" />
          </mxGeometry>
        </mxCell>
        <mxCell id="Z2tcvn6Gc2qMjcab1dwy-31" value="Antrag prÃ¼fen" style="html=1;align=center;verticalAlign=top;rounded=1;absoluteArcSize=1;arcSize=10;dashed=0;whiteSpace=wrap;fillColor=#fff2cc;strokeColor=#d6b656;" parent="Z2tcvn6Gc2qMjcab1dwy-2" vertex="1">
          <mxGeometry x="40" y="340" width="110" height="30" as="geometry" />
        </mxCell>
        <mxCell id="NLIEJxQopgI-QllRl0aE-23" style="edgeStyle=orthogonalEdgeStyle;rounded=0;orthogonalLoop=1;jettySize=auto;html=1;entryX=0.5;entryY=0;entryDx=0;entryDy=0;exitX=0.5;exitY=1;exitDx=0;exitDy=0;" parent="Z2tcvn6Gc2qMjcab1dwy-2" source="Z2tcvn6Gc2qMjcab1dwy-33" target="NLIEJxQopgI-QllRl0aE-22" edge="1">
          <mxGeometry relative="1" as="geometry" />
        </mxCell>
        <mxCell id="Z2tcvn6Gc2qMjcab1dwy-33" value="Antrag prÃ¼fen" style="html=1;align=center;verticalAlign=top;rounded=1;absoluteArcSize=1;arcSize=10;dashed=0;whiteSpace=wrap;fillColor=#fff2cc;strokeColor=#d6b656;" parent="Z2tcvn6Gc2qMjcab1dwy-2" vertex="1">
          <mxGeometry x="307.5" y="340" width="110" height="30" as="geometry" />
        </mxCell>
        <mxCell id="Z2tcvn6Gc2qMjcab1dwy-35" value="Urlaubsantrag&lt;br&gt;&lt;br&gt;[in PrÃ¼fung]" style="html=1;align=center;verticalAlign=middle;rounded=0;absoluteArcSize=1;arcSize=10;dashed=0;whiteSpace=wrap;fillColor=#d5e8d4;strokeColor=#82b366;" parent="Z2tcvn6Gc2qMjcab1dwy-2" vertex="1">
          <mxGeometry x="190" y="182.5" width="140" height="60" as="geometry" />
        </mxCell>
        <mxCell id="NLIEJxQopgI-QllRl0aE-54" style="edgeStyle=orthogonalEdgeStyle;rounded=0;orthogonalLoop=1;jettySize=auto;html=1;" parent="Z2tcvn6Gc2qMjcab1dwy-2" source="Z2tcvn6Gc2qMjcab1dwy-36" target="Z2tcvn6Gc2qMjcab1dwy-37" edge="1">
          <mxGeometry relative="1" as="geometry" />
        </mxCell>
        <mxCell id="Z2tcvn6Gc2qMjcab1dwy-36" value="Antrag archivieren" style="html=1;align=center;verticalAlign=top;rounded=1;absoluteArcSize=1;arcSize=10;dashed=0;whiteSpace=wrap;fillColor=#fff2cc;strokeColor=#d6b656;" parent="Z2tcvn6Gc2qMjcab1dwy-2" vertex="1">
          <mxGeometry x="670" y="632.5" width="110" height="30" as="geometry" />
        </mxCell>
        <mxCell id="Z2tcvn6Gc2qMjcab1dwy-37" value="" style="ellipse;html=1;shape=endState;fillColor=strokeColor;" parent="Z2tcvn6Gc2qMjcab1dwy-2" vertex="1">
          <mxGeometry x="710" y="697.5" width="30" height="30" as="geometry" />
        </mxCell>
        <mxCell id="NLIEJxQopgI-QllRl0aE-34" style="edgeStyle=orthogonalEdgeStyle;rounded=0;orthogonalLoop=1;jettySize=auto;html=1;" parent="Z2tcvn6Gc2qMjcab1dwy-2" source="Z2tcvn6Gc2qMjcab1dwy-51" target="NLIEJxQopgI-QllRl0aE-21" edge="1">
          <mxGeometry relative="1" as="geometry" />
        </mxCell>
        <mxCell id="Z2tcvn6Gc2qMjcab1dwy-51" value="" style="html=1;points=[];perimeter=orthogonalPerimeter;fillColor=strokeColor;rotation=90;" parent="Z2tcvn6Gc2qMjcab1dwy-2" vertex="1">
          <mxGeometry x="267.5" y="400" width="5" height="80" as="geometry" />
        </mxCell>
        <mxCell id="NLIEJxQopgI-QllRl0aE-9" value="" style="group" parent="Z2tcvn6Gc2qMjcab1dwy-2" vertex="1" connectable="0">
          <mxGeometry x="696.25" y="232.5" width="83.75" height="30" as="geometry" />
        </mxCell>
        <mxCell id="Z2tcvn6Gc2qMjcab1dwy-40" value="Start" style="text;html=1;strokeColor=none;fillColor=none;align=center;verticalAlign=middle;whiteSpace=wrap;rounded=0;" parent="NLIEJxQopgI-QllRl0aE-9" vertex="1">
          <mxGeometry x="23.75" width="60" height="30" as="geometry" />
        </mxCell>
        <mxCell id="NLIEJxQopgI-QllRl0aE-31" style="edgeStyle=orthogonalEdgeStyle;rounded=0;orthogonalLoop=1;jettySize=auto;html=1;exitX=0.871;exitY=0.694;exitDx=0;exitDy=0;exitPerimeter=0;" parent="Z2tcvn6Gc2qMjcab1dwy-2" source="NLIEJxQopgI-QllRl0aE-12" target="Z2tcvn6Gc2qMjcab1dwy-31" edge="1">
          <mxGeometry relative="1" as="geometry" />
        </mxCell>
        <mxCell id="NLIEJxQopgI-QllRl0aE-32" style="edgeStyle=orthogonalEdgeStyle;rounded=0;orthogonalLoop=1;jettySize=auto;html=1;exitX=0.871;exitY=0.365;exitDx=0;exitDy=0;exitPerimeter=0;" parent="Z2tcvn6Gc2qMjcab1dwy-2" source="NLIEJxQopgI-QllRl0aE-12" target="Z2tcvn6Gc2qMjcab1dwy-33" edge="1">
          <mxGeometry relative="1" as="geometry" />
        </mxCell>
        <mxCell id="NLIEJxQopgI-QllRl0aE-12" value="" style="html=1;points=[];perimeter=orthogonalPerimeter;fillColor=strokeColor;rotation=90;" parent="Z2tcvn6Gc2qMjcab1dwy-2" vertex="1">
          <mxGeometry x="257.5" y="250" width="5" height="80" as="geometry" />
        </mxCell>
        <mxCell id="NLIEJxQopgI-QllRl0aE-16" value="Entscheidung SV" style="html=1;rounded=0;fillColor=#d5e8d4;strokeColor=#82b366;" parent="Z2tcvn6Gc2qMjcab1dwy-2" vertex="1">
          <mxGeometry x="117.5" y="390" width="110" height="30" as="geometry" />
        </mxCell>
        <mxCell id="NLIEJxQopgI-QllRl0aE-17" value="" style="endArrow=classic;html=1;rounded=0;align=center;verticalAlign=top;endFill=1;labelBackgroundColor=none;endSize=6;exitX=0.5;exitY=1;exitDx=0;exitDy=0;edgeStyle=orthogonalEdgeStyle;entryX=0;entryY=0.5;entryDx=0;entryDy=0;" parent="Z2tcvn6Gc2qMjcab1dwy-2" source="Z2tcvn6Gc2qMjcab1dwy-31" target="NLIEJxQopgI-QllRl0aE-16" edge="1">
          <mxGeometry relative="1" as="geometry">
            <mxPoint x="130" y="395" as="sourcePoint" />
          </mxGeometry>
        </mxCell>
        <mxCell id="NLIEJxQopgI-QllRl0aE-45" style="edgeStyle=orthogonalEdgeStyle;rounded=0;orthogonalLoop=1;jettySize=auto;html=1;entryX=0;entryY=0.5;entryDx=0;entryDy=0;exitX=0.5;exitY=1;exitDx=0;exitDy=0;" parent="Z2tcvn6Gc2qMjcab1dwy-2" source="NLIEJxQopgI-QllRl0aE-21" target="NLIEJxQopgI-QllRl0aE-42" edge="1">
          <mxGeometry relative="1" as="geometry" />
        </mxCell>
        <mxCell id="NLIEJxQopgI-QllRl0aE-21" value="BestÃ¤tigungen prÃ¼fen" style="html=1;align=center;verticalAlign=top;rounded=1;absoluteArcSize=1;arcSize=10;dashed=0;whiteSpace=wrap;fillColor=#fff2cc;strokeColor=#d6b656;" parent="Z2tcvn6Gc2qMjcab1dwy-2" vertex="1">
          <mxGeometry x="197" y="540" width="145" height="30" as="geometry" />
        </mxCell>
        <mxCell id="NLIEJxQopgI-QllRl0aE-22" value="Entscheidung AL" style="html=1;rounded=0;fillColor=#d5e8d4;strokeColor=#82b366;" parent="Z2tcvn6Gc2qMjcab1dwy-2" vertex="1">
          <mxGeometry x="310.625" y="390" width="103.75" height="30" as="geometry" />
        </mxCell>
        <mxCell id="NLIEJxQopgI-QllRl0aE-27" style="edgeStyle=orthogonalEdgeStyle;rounded=0;orthogonalLoop=1;jettySize=auto;html=1;entryX=-0.389;entryY=0.279;entryDx=0;entryDy=0;entryPerimeter=0;exitX=0;exitY=0.5;exitDx=0;exitDy=0;" parent="Z2tcvn6Gc2qMjcab1dwy-2" source="NLIEJxQopgI-QllRl0aE-22" target="Z2tcvn6Gc2qMjcab1dwy-51" edge="1">
          <mxGeometry relative="1" as="geometry" />
        </mxCell>
        <mxCell id="NLIEJxQopgI-QllRl0aE-29" style="edgeStyle=orthogonalEdgeStyle;rounded=0;orthogonalLoop=1;jettySize=auto;html=1;entryX=-0.389;entryY=0.738;entryDx=0;entryDy=0;entryPerimeter=0;" parent="Z2tcvn6Gc2qMjcab1dwy-2" source="NLIEJxQopgI-QllRl0aE-16" target="Z2tcvn6Gc2qMjcab1dwy-51" edge="1">
          <mxGeometry relative="1" as="geometry" />
        </mxCell>
        <mxCell id="NLIEJxQopgI-QllRl0aE-33" value="" style="shape=mxgraph.lean_mapping.electronic_info_flow_edge;html=1;rounded=0;exitX=0;exitY=1;exitDx=0;exitDy=0;entryX=1;entryY=0;entryDx=0;entryDy=0;" parent="Z2tcvn6Gc2qMjcab1dwy-2" source="Z2tcvn6Gc2qMjcab1dwy-42" target="NLIEJxQopgI-QllRl0aE-21" edge="1">
          <mxGeometry width="160" relative="1" as="geometry">
            <mxPoint x="350" y="680" as="sourcePoint" />
            <mxPoint x="510" y="680" as="targetPoint" />
          </mxGeometry>
        </mxCell>
        <mxCell id="NLIEJxQopgI-QllRl0aE-35" value="" style="group" parent="Z2tcvn6Gc2qMjcab1dwy-2" vertex="1" connectable="0">
          <mxGeometry x="370" y="430" width="106" height="80" as="geometry" />
        </mxCell>
        <mxCell id="NLIEJxQopgI-QllRl0aE-26" value="" style="group" parent="NLIEJxQopgI-QllRl0aE-35" vertex="1" connectable="0">
          <mxGeometry width="106" height="80" as="geometry" />
        </mxCell>
        <mxCell id="NLIEJxQopgI-QllRl0aE-25" value="Frist verstrichen&lt;br&gt;{5 Arbeitstage}" style="text;html=1;strokeColor=none;fillColor=none;align=center;verticalAlign=middle;whiteSpace=wrap;rounded=0;" parent="NLIEJxQopgI-QllRl0aE-26" vertex="1">
          <mxGeometry width="90" height="30" as="geometry" />
        </mxCell>
        <mxCell id="ktQJaaobJjiNkuKkehqw-3" value="" style="shape=mxgraph.signs.people.waiting_room_2;html=1;pointerEvents=1;fillColor=#000000;strokeColor=none;verticalLabelPosition=bottom;verticalAlign=top;align=center;sketch=0;" vertex="1" parent="NLIEJxQopgI-QllRl0aE-26">
          <mxGeometry x="67" y="37.06" width="39" height="42.94" as="geometry" />
        </mxCell>
        <mxCell id="Z2tcvn6Gc2qMjcab1dwy-42" value="" style="shape=collate;html=1;fillColor=#f8cecc;strokeColor=#b85450;" parent="NLIEJxQopgI-QllRl0aE-35" vertex="1">
          <mxGeometry x="20.75" y="30" width="40" height="40" as="geometry" />
        </mxCell>
        <mxCell id="NLIEJxQopgI-QllRl0aE-49" value="[ja]" style="edgeStyle=orthogonalEdgeStyle;rounded=0;orthogonalLoop=1;jettySize=auto;html=1;exitX=0.5;exitY=1;exitDx=0;exitDy=0;entryX=0.5;entryY=0;entryDx=0;entryDy=0;" parent="Z2tcvn6Gc2qMjcab1dwy-2" source="NLIEJxQopgI-QllRl0aE-42" target="NLIEJxQopgI-QllRl0aE-58" edge="1">
          <mxGeometry x="-0.7826" y="-10" relative="1" as="geometry">
            <mxPoint as="offset" />
          </mxGeometry>
        </mxCell>
        <mxCell id="NLIEJxQopgI-QllRl0aE-51" value="[nein]" style="edgeStyle=orthogonalEdgeStyle;rounded=0;orthogonalLoop=1;jettySize=auto;html=1;entryX=0.25;entryY=1;entryDx=0;entryDy=0;exitX=1;exitY=0.5;exitDx=0;exitDy=0;labelBackgroundColor=none;" parent="Z2tcvn6Gc2qMjcab1dwy-2" source="NLIEJxQopgI-QllRl0aE-42" edge="1">
          <mxGeometry x="-0.6491" y="10" relative="1" as="geometry">
            <mxPoint x="367" y="635" as="sourcePoint" />
            <mxPoint x="457" y="580" as="targetPoint" />
            <mxPoint as="offset" />
          </mxGeometry>
        </mxCell>
        <mxCell id="NLIEJxQopgI-QllRl0aE-47" style="edgeStyle=orthogonalEdgeStyle;rounded=0;orthogonalLoop=1;jettySize=auto;html=1;entryX=-0.256;entryY=0.503;entryDx=0;entryDy=0;entryPerimeter=0;" parent="Z2tcvn6Gc2qMjcab1dwy-2" source="Z2tcvn6Gc2qMjcab1dwy-35" target="NLIEJxQopgI-QllRl0aE-12" edge="1">
          <mxGeometry relative="1" as="geometry" />
        </mxCell>
        <mxCell id="NLIEJxQopgI-QllRl0aE-53" style="edgeStyle=orthogonalEdgeStyle;rounded=0;orthogonalLoop=1;jettySize=auto;html=1;entryX=0;entryY=0.5;entryDx=0;entryDy=0;" parent="Z2tcvn6Gc2qMjcab1dwy-2" source="NLIEJxQopgI-QllRl0aE-48" target="Z2tcvn6Gc2qMjcab1dwy-36" edge="1">
          <mxGeometry relative="1" as="geometry" />
        </mxCell>
        <mxCell id="NLIEJxQopgI-QllRl0aE-48" value="Urlaubsantrag&lt;br&gt;&lt;br&gt;[genehmigt]" style="html=1;align=center;verticalAlign=middle;rounded=0;absoluteArcSize=1;arcSize=10;dashed=0;whiteSpace=wrap;fillColor=#d5e8d4;strokeColor=#82b366;" parent="Z2tcvn6Gc2qMjcab1dwy-2" vertex="1">
          <mxGeometry x="490" y="697.5" width="140" height="60" as="geometry" />
        </mxCell>
        <mxCell id="NLIEJxQopgI-QllRl0aE-52" style="edgeStyle=orthogonalEdgeStyle;rounded=0;orthogonalLoop=1;jettySize=auto;html=1;" parent="Z2tcvn6Gc2qMjcab1dwy-2" source="NLIEJxQopgI-QllRl0aE-50" target="Z2tcvn6Gc2qMjcab1dwy-36" edge="1">
          <mxGeometry relative="1" as="geometry" />
        </mxCell>
        <mxCell id="NLIEJxQopgI-QllRl0aE-50" value="Urlaubsantrag&lt;br&gt;&lt;br&gt;[abgelehnt]" style="html=1;align=center;verticalAlign=middle;rounded=0;absoluteArcSize=1;arcSize=10;dashed=0;whiteSpace=wrap;fillColor=#d5e8d4;strokeColor=#82b366;" parent="Z2tcvn6Gc2qMjcab1dwy-2" vertex="1">
          <mxGeometry x="490" y="617.5" width="140" height="60" as="geometry" />
        </mxCell>
        <mxCell id="NLIEJxQopgI-QllRl0aE-80" style="edgeStyle=orthogonalEdgeStyle;rounded=0;orthogonalLoop=1;jettySize=auto;html=1;entryX=0.25;entryY=0;entryDx=0;entryDy=0;" parent="Z2tcvn6Gc2qMjcab1dwy-2" source="NLIEJxQopgI-QllRl0aE-55" target="NLIEJxQopgI-QllRl0aE-50" edge="1">
          <mxGeometry relative="1" as="geometry" />
        </mxCell>
        <mxCell id="NLIEJxQopgI-QllRl0aE-55" value="Antrag ablehnen" style="html=1;align=center;verticalAlign=top;rounded=1;absoluteArcSize=1;arcSize=10;dashed=0;whiteSpace=wrap;fillColor=#fff2cc;strokeColor=#d6b656;" parent="Z2tcvn6Gc2qMjcab1dwy-2" vertex="1">
          <mxGeometry x="427" y="550" width="113" height="30" as="geometry" />
        </mxCell>
        <mxCell id="NLIEJxQopgI-QllRl0aE-56" value="[nein]" style="edgeStyle=orthogonalEdgeStyle;rounded=0;orthogonalLoop=1;jettySize=auto;html=1;exitX=0.5;exitY=1;exitDx=0;exitDy=0;entryX=0.75;entryY=0;entryDx=0;entryDy=0;" parent="Z2tcvn6Gc2qMjcab1dwy-2" source="Z2tcvn6Gc2qMjcab1dwy-19" target="NLIEJxQopgI-QllRl0aE-55" edge="1">
          <mxGeometry x="-0.8126" y="15" relative="1" as="geometry">
            <Array as="points">
              <mxPoint x="352" y="195" />
              <mxPoint x="430" y="195" />
              <mxPoint x="430" y="240" />
              <mxPoint x="512" y="240" />
            </Array>
            <mxPoint as="offset" />
          </mxGeometry>
        </mxCell>
        <mxCell id="NLIEJxQopgI-QllRl0aE-62" style="edgeStyle=orthogonalEdgeStyle;rounded=0;orthogonalLoop=1;jettySize=auto;html=1;" parent="Z2tcvn6Gc2qMjcab1dwy-2" source="NLIEJxQopgI-QllRl0aE-58" target="NLIEJxQopgI-QllRl0aE-48" edge="1">
          <mxGeometry relative="1" as="geometry" />
        </mxCell>
        <mxCell id="NLIEJxQopgI-QllRl0aE-58" value="Antrag genehmigen" style="html=1;align=center;verticalAlign=top;rounded=1;absoluteArcSize=1;arcSize=10;dashed=0;whiteSpace=wrap;fillColor=#fff2cc;strokeColor=#d6b656;" parent="Z2tcvn6Gc2qMjcab1dwy-2" vertex="1">
          <mxGeometry x="290" y="712.5" width="120" height="30" as="geometry" />
        </mxCell>
        <mxCell id="NLIEJxQopgI-QllRl0aE-61" value="" style="group" parent="Z2tcvn6Gc2qMjcab1dwy-2" vertex="1" connectable="0">
          <mxGeometry x="267" y="580" width="170" height="60" as="geometry" />
        </mxCell>
        <mxCell id="NLIEJxQopgI-QllRl0aE-43" value="Beide Entscheidungen positiv oder Frist verstrichen?" style="text;html=1;strokeColor=none;fillColor=none;align=center;verticalAlign=middle;whiteSpace=wrap;rounded=0;" parent="NLIEJxQopgI-QllRl0aE-61" vertex="1">
          <mxGeometry width="170" height="30" as="geometry" />
        </mxCell>
        <mxCell id="NLIEJxQopgI-QllRl0aE-78" style="edgeStyle=orthogonalEdgeStyle;rounded=0;orthogonalLoop=1;jettySize=auto;html=1;" parent="Z2tcvn6Gc2qMjcab1dwy-2" source="Z2tcvn6Gc2qMjcab1dwy-39" target="Z2tcvn6Gc2qMjcab1dwy-14" edge="1">
          <mxGeometry relative="1" as="geometry" />
        </mxCell>
        <mxCell id="Z2tcvn6Gc2qMjcab1dwy-39" value="" style="ellipse;fillColor=strokeColor;html=1;fontStyle=4" parent="Z2tcvn6Gc2qMjcab1dwy-2" vertex="1">
          <mxGeometry x="696.25" y="232.5" width="30" height="30" as="geometry" />
        </mxCell>
        <mxCell id="NLIEJxQopgI-QllRl0aE-42" value="" style="rhombus;fillColor=#f8cecc;strokeColor=#b85450;" parent="Z2tcvn6Gc2qMjcab1dwy-2" vertex="1">
          <mxGeometry x="335" y="615" width="30" height="30" as="geometry" />
        </mxCell>
        <mxCell id="NLIEJxQopgI-QllRl0aE-82" value="Ende" style="text;html=1;strokeColor=none;fillColor=none;align=center;verticalAlign=middle;whiteSpace=wrap;rounded=0;" parent="Z2tcvn6Gc2qMjcab1dwy-2" vertex="1">
          <mxGeometry x="730" y="697.5" width="60" height="30" as="geometry" />
        </mxCell>
        <mxCell id="Z2tcvn6Gc2qMjcab1dwy-20" value="Urlaubskontingent ausreichend?" style="text;html=1;strokeColor=none;fillColor=none;align=center;verticalAlign=middle;whiteSpace=wrap;rounded=0;" parent="Z2tcvn6Gc2qMjcab1dwy-2" vertex="1">
          <mxGeometry x="354" y="107.5" width="60" height="30" as="geometry" />
        </mxCell>
        <mxCell id="Z2tcvn6Gc2qMjcab1dwy-19" value="" style="rhombus;fillColor=#f8cecc;strokeColor=#b85450;" parent="Z2tcvn6Gc2qMjcab1dwy-2" vertex="1">
          <mxGeometry x="337" y="137.5" width="30" height="30" as="geometry" />
        </mxCell>
        <mxCell id="ktQJaaobJjiNkuKkehqw-0" value="" style="shape=mxgraph.signs.transportation.airplane_1;html=1;pointerEvents=1;fillColor=#000000;strokeColor=none;verticalLabelPosition=bottom;verticalAlign=top;align=center;sketch=0;" vertex="1" parent="Z2tcvn6Gc2qMjcab1dwy-2">
          <mxGeometry x="670" y="741.45" width="80.75" height="28.55" as="geometry" />
        </mxCell>
        <mxCell id="ktQJaaobJjiNkuKkehqw-1" value="" style="shape=mxgraph.signs.travel.ticket_purchase;html=1;pointerEvents=1;fillColor=#000000;strokeColor=none;verticalLabelPosition=bottom;verticalAlign=top;align=center;sketch=0;" vertex="1" parent="Z2tcvn6Gc2qMjcab1dwy-2">
          <mxGeometry x="725.75" y="122.5" width="48" height="47.5" as="geometry" />
        </mxCell>
        <mxCell id="ktQJaaobJjiNkuKkehqw-2" value="" style="shape=mxgraph.signs.travel.baggage;html=1;pointerEvents=1;fillColor=#000000;strokeColor=none;verticalLabelPosition=bottom;verticalAlign=top;align=center;sketch=0;" vertex="1" parent="Z2tcvn6Gc2qMjcab1dwy-2">
          <mxGeometry x="427" y="736" width="40.63" height="34" as="geometry" />
        </mxCell>
      </root>
    </mxGraphModel>
  </diagram>
</mxfile>
